<?xml version="1.0" encoding="UTF-8" standalone="no"?>
<!-- Created with Inkscape (http://www.inkscape.org/) -->

<svg
   width="512"
   height="512"
   viewBox="0 0 512 512"
   version="1.1"
   id="svg1"
   xml:space="preserve"
   xmlns:xlink="http://www.w3.org/1999/xlink"
   xmlns="http://www.w3.org/2000/svg"
   xmlns:svg="http://www.w3.org/2000/svg"><defs
     id="defs1"><linearGradient
       id="linearGradient8"><stop
         style="stop-color:#ff44c6;stop-opacity:1;"
         offset="0"
         id="stop7" /><stop
         style="stop-color:#bf1f1f;stop-opacity:0.46666667;"
         offset="0.74145752"
         id="stop9" /><stop
         style="stop-color:#8800aa;stop-opacity:0;"
         offset="1"
         id="stop8" /></linearGradient><radialGradient
       xlink:href="#linearGradient8"
       id="radialGradient6-7"
       cx="270.79993"
       cy="240.80363"
       fx="270.79993"
       fy="240.80363"
       r="256.5"
       gradientUnits="userSpaceOnUse"
       gradientTransform="matrix(1.0861523,0.02858261,-0.029851,1.1343515,-41.630658,-10.713041)" /></defs><g
     id="layer1"><rect
       style="fill:#c83771;fill-opacity:1;stroke:none"
       id="rect1"
       width="512"
       height="512"
       x="-0.11843149"
       y="0.36966452"
       ry="57.492908" /><rect
       style="fill:url(#radialGradient6-7);fill-opacity:1;stroke:none;stroke-width:1.2376"
       id="rect1-6"
       width="633.65167"
       height="633.65167"
       x="-89.97776"
       y="-27.378176"
       ry="71.153282" /><path
       d="m 333.88115,115.26919 c -19.1695,-10.72467 -35.72614,-19.972144 -35.72614,-33.198672 0,-4.713392 -3.82537,-8.53876 -8.53875,-8.53876 h -34.15502 c -4.71338,0 -8.53874,3.825368 -8.53874,8.53876 V 99.148026 267.78838 c -10.7076,-4.21814 -22.29469,-6.40405 -34.15501,-6.40405 -47.08269,0 -85.38753,34.47947 -85.38753,76.84876 0,2.88611 0,14.1914 0,17.07751 0,42.36929 38.30484,76.84878 85.38753,76.84878 47.08268,0 85.38752,-34.47949 85.38752,-76.84878 V 194.3295 c 14.73789,3.6802 37.28019,15.37829 41.8228,34.5051 -3.30449,21.51766 -15.16481,45.52863 -15.30997,45.8104 -0.59772,1.21251 -0.89657,2.61286 -0.89657,3.81683 0,1.20397 0,15.30144 0,17.07751 0,1.77605 0.86242,4.39745 2.50186,6.03689 l 17.0775,17.07751 c 3.20203,3.20202 8.87176,3.20202 12.07379,0 1.84437,-1.84438 45.19562,-45.81895 45.19562,-99.96318 0,-2.98003 0,-14.22556 0,-17.0775 0,-49.03805 -36.99841,-69.72746 -66.73889,-86.34387 z"
       id="path1"
       style="fill:#57002e;fill-opacity:1;stroke-width:0;stroke-dasharray:none" /><path
       fill="#ffffff"
       d="m 289.61626,82.070518 h -17.0775 -17.07752 V 281.44185 c -12.21041,-7.26647 -26.88853,-11.51878 -42.69375,-11.51878 -42.44615,0 -76.84878,30.58581 -76.84878,68.31002 0,37.72422 34.40263,68.31002 76.84878,68.31002 42.44614,0 76.84877,-30.5858 76.84877,-68.31002 V 167.45805 c 17.07751,0 59.77126,17.0775 59.77126,51.23251 0,25.61625 -17.0775,59.77127 -17.0775,59.77127 l 17.0775,17.07751 c 0,0 42.69377,-42.69377 42.69377,-93.92628 0,-76.84878 -102.46503,-76.84878 -102.46503,-119.542542 z"
       id="path2"
       style="fill:#c87137;stroke-width:8.53874" /><path
       fill="none"
       stroke="#000000"
       stroke-linecap="round"
       stroke-linejoin="round"
       stroke-miterlimit="10"
       stroke-width="17.0775"
       d="m 289.61626,82.070518 h -17.0775 -17.07752 V 281.44185 c -12.21041,-7.26647 -26.88853,-11.51878 -42.69375,-11.51878 -42.44615,0 -76.84878,30.58581 -76.84878,68.31002 0,37.72422 34.40263,68.31002 76.84878,68.31002 42.44614,0 76.84877,-30.5858 76.84877,-68.31002 V 167.45805 c 17.07751,0 59.77126,17.0775 59.77126,51.23251 0,25.61625 -17.0775,59.77127 -17.0775,59.77127 l 17.0775,17.07751 c 0,0 42.69377,-42.69377 42.69377,-93.92628 0,-76.84878 -102.46503,-76.84878 -102.46503,-119.542542 z"
       id="path3"
       style="fill:#ab37c8;stroke-width:0;stroke-dasharray:none" /><path
       d="m 93.416904,40.174122 c -26.28484,0 -47.44531,21.16242 -47.44531,47.44726 V 415.2542 c 0,26.28484 21.16047,47.44531 47.44531,47.44531 H 420.9501 c 26.28484,0 47.44531,-21.16047 47.44531,-47.44531 V 87.621382 c 0,-26.28484 -21.16047,-47.44726 -47.44531,-47.44726 z m 19.226556,27.65234 h 286.40039 c 22.98403,0 41.48828,18.5023 41.48828,41.486328 v 286.49023 c 0,22.98403 -18.50425,41.48633 -41.48828,41.48633 H 112.64346 c -22.984026,0 -41.488276,-18.5023 -41.488276,-41.48633 V 109.31279 c 0,-22.984028 18.50425,-41.486328 41.488276,-41.486328 z"
       style="fill:#ff9955;stroke:none;stroke-width:2.125"
       id="path8" /></g></svg>
